<mxfile host="app.diagrams.net" modified="2024-05-01T17:53:52.243Z" agent="Mozilla/5.0 (X11; Linux x86_64; rv:124.0) Gecko/20100101 Firefox/124.0" etag="rLcgMTWa5h3RWv19QvVd" version="24.3.1" type="device">
  <diagram name="Page-1" id="Q3mBGWrwZ0WqKtqV44Mk">
    <mxGraphModel dx="1414" dy="770" grid="1" gridSize="10" guides="1" tooltips="1" connect="1" arrows="1" fold="1" page="1" pageScale="1" pageWidth="850" pageHeight="1100" math="0" shadow="0">
      <root>
        <mxCell id="0" />
        <mxCell id="1" parent="0" />
        <mxCell id="oD_Yi28MRMcOgQZIaKZo-1" value="&lt;font style=&quot;font-size: 20px;&quot;&gt;Server&lt;/font&gt;" style="rounded=0;whiteSpace=wrap;html=1;" parent="1" vertex="1">
          <mxGeometry x="60" y="397" width="750" height="60" as="geometry" />
        </mxCell>
        <mxCell id="oD_Yi28MRMcOgQZIaKZo-2" value="&lt;font style=&quot;font-size: 20px;&quot;&gt;Web-Client&lt;/font&gt;" style="rounded=0;whiteSpace=wrap;html=1;" parent="1" vertex="1">
          <mxGeometry x="60" y="150" width="760" height="60" as="geometry" />
        </mxCell>
        <mxCell id="oD_Yi28MRMcOgQZIaKZo-3" value="&lt;font style=&quot;font-size: 20px;&quot;&gt;Ring-Door-Bell&lt;/font&gt;" style="rounded=0;whiteSpace=wrap;html=1;" parent="1" vertex="1">
          <mxGeometry x="60" y="634" width="750" height="60" as="geometry" />
        </mxCell>
        <mxCell id="oD_Yi28MRMcOgQZIaKZo-4" value="&lt;font style=&quot;font-size: 22px;&quot;&gt;Endpoints WebServer&lt;/font&gt;" style="text;html=1;align=center;verticalAlign=middle;whiteSpace=wrap;rounded=0;" parent="1" vertex="1">
          <mxGeometry x="30" y="20" width="540" height="30" as="geometry" />
        </mxCell>
        <mxCell id="ecYn4uSlazqXLzJlbQfl-1" value="" style="endArrow=classic;html=1;rounded=0;exitX=0;exitY=1;exitDx=0;exitDy=0;entryX=0;entryY=0;entryDx=0;entryDy=0;strokeWidth=2;" edge="1" parent="1">
          <mxGeometry width="50" height="50" relative="1" as="geometry">
            <mxPoint x="350.0000000000007" y="210" as="sourcePoint" />
            <mxPoint x="350.0000000000009" y="397" as="targetPoint" />
          </mxGeometry>
        </mxCell>
        <mxCell id="ecYn4uSlazqXLzJlbQfl-2" value="&lt;div&gt;5. addUser&lt;/div&gt;&lt;div&gt;(bellId, userId,&lt;/div&gt;&lt;div&gt;&amp;nbsp;nickname) &lt;/div&gt;" style="edgeLabel;html=1;align=center;verticalAlign=middle;resizable=0;points=[];" vertex="1" connectable="0" parent="ecYn4uSlazqXLzJlbQfl-1">
          <mxGeometry x="-0.1444" y="1" relative="1" as="geometry">
            <mxPoint x="-1" y="-50" as="offset" />
          </mxGeometry>
        </mxCell>
        <mxCell id="ecYn4uSlazqXLzJlbQfl-9" value="" style="endArrow=none;html=1;rounded=0;strokeWidth=3;" edge="1" parent="1">
          <mxGeometry width="50" height="50" relative="1" as="geometry">
            <mxPoint x="60" y="380" as="sourcePoint" />
            <mxPoint x="800" y="380" as="targetPoint" />
          </mxGeometry>
        </mxCell>
        <mxCell id="ecYn4uSlazqXLzJlbQfl-10" value="&lt;i&gt;REST&lt;/i&gt;" style="edgeLabel;html=1;align=center;verticalAlign=middle;resizable=0;points=[];" vertex="1" connectable="0" parent="ecYn4uSlazqXLzJlbQfl-9">
          <mxGeometry x="-0.0625" y="2" relative="1" as="geometry">
            <mxPoint as="offset" />
          </mxGeometry>
        </mxCell>
        <mxCell id="ecYn4uSlazqXLzJlbQfl-17" value="REST" style="endArrow=none;html=1;rounded=0;strokeWidth=3;" edge="1" parent="1">
          <mxGeometry width="50" height="50" relative="1" as="geometry">
            <mxPoint x="60" y="473" as="sourcePoint" />
            <mxPoint x="810" y="473" as="targetPoint" />
          </mxGeometry>
        </mxCell>
        <mxCell id="ecYn4uSlazqXLzJlbQfl-25" value="&lt;ol&gt;&lt;li&gt;When user opens webclient, WebSocketConnection is opened. (Server saves websocketId of user together with his userid.&lt;br&gt;&lt;br&gt;&lt;/li&gt;&lt;li&gt;User rings bell and selects user he want&#39;s to call&lt;br&gt;&lt;br&gt;&lt;/li&gt;&lt;li&gt;doorbell sends message to server with id of user to call and own RTC-Id (signal)&lt;br&gt;&lt;br&gt;&lt;/li&gt;&lt;li&gt;Server checks if there is a websocket connection for give userId, if so server sends message to user with websocket id of doorbell, doorbell info (name) and RTC-Signal/ID of the bell&lt;br&gt; &lt;br&gt;&lt;/li&gt;&lt;li&gt;If user accepts call, web client sends message back to accept the call with id of the bell and its own rtc-signal/id&lt;br&gt;&lt;br&gt;&lt;/li&gt;&lt;li&gt;Server sends message to bell, that call was accepted with RTC-signal/id of user.&lt;br&gt;&lt;br&gt;&lt;/li&gt;&lt;li&gt;Doorbell calls User via RTC&lt;br&gt;&lt;br&gt;&lt;/li&gt;&lt;/ol&gt;" style="text;html=1;align=left;verticalAlign=top;whiteSpace=wrap;rounded=0;" vertex="1" parent="1">
          <mxGeometry x="235" y="870" width="545" height="290" as="geometry" />
        </mxCell>
        <mxCell id="ecYn4uSlazqXLzJlbQfl-28" value="" style="endArrow=classic;html=1;rounded=0;exitX=0;exitY=1;exitDx=0;exitDy=0;entryX=0;entryY=0;entryDx=0;entryDy=0;strokeWidth=2;" edge="1" parent="1">
          <mxGeometry width="50" height="50" relative="1" as="geometry">
            <mxPoint x="520" y="210" as="sourcePoint" />
            <mxPoint x="520" y="397" as="targetPoint" />
          </mxGeometry>
        </mxCell>
        <mxCell id="ecYn4uSlazqXLzJlbQfl-29" value="&lt;div&gt;7. change&lt;/div&gt;&lt;div&gt;Nickname&lt;/div&gt;&lt;div&gt;(bellId, userId,&lt;/div&gt;&lt;div&gt;nickname)&lt;br&gt;&lt;/div&gt;" style="edgeLabel;html=1;align=center;verticalAlign=middle;resizable=0;points=[];" vertex="1" connectable="0" parent="ecYn4uSlazqXLzJlbQfl-28">
          <mxGeometry x="-0.1444" y="1" relative="1" as="geometry">
            <mxPoint x="-1" y="50" as="offset" />
          </mxGeometry>
        </mxCell>
        <mxCell id="ecYn4uSlazqXLzJlbQfl-30" value="" style="endArrow=classic;html=1;rounded=0;exitX=0;exitY=1;exitDx=0;exitDy=0;entryX=0;entryY=0;entryDx=0;entryDy=0;strokeWidth=2;" edge="1" parent="1">
          <mxGeometry width="50" height="50" relative="1" as="geometry">
            <mxPoint x="70" y="210" as="sourcePoint" />
            <mxPoint x="70" y="397" as="targetPoint" />
          </mxGeometry>
        </mxCell>
        <mxCell id="ecYn4uSlazqXLzJlbQfl-31" value="&lt;div&gt;1. signUp&lt;/div&gt;&lt;div&gt;(username&lt;/div&gt;&lt;div&gt;, password) &lt;/div&gt;" style="edgeLabel;html=1;align=center;verticalAlign=middle;resizable=0;points=[];" vertex="1" connectable="0" parent="ecYn4uSlazqXLzJlbQfl-30">
          <mxGeometry x="-0.1444" y="1" relative="1" as="geometry">
            <mxPoint x="-1" y="-2" as="offset" />
          </mxGeometry>
        </mxCell>
        <mxCell id="ecYn4uSlazqXLzJlbQfl-32" value="" style="endArrow=classic;html=1;rounded=0;exitX=0;exitY=1;exitDx=0;exitDy=0;entryX=0;entryY=0;entryDx=0;entryDy=0;strokeWidth=2;" edge="1" parent="1">
          <mxGeometry width="50" height="50" relative="1" as="geometry">
            <mxPoint x="140.00000000000068" y="210" as="sourcePoint" />
            <mxPoint x="140.0000000000009" y="397" as="targetPoint" />
          </mxGeometry>
        </mxCell>
        <mxCell id="ecYn4uSlazqXLzJlbQfl-33" value="&lt;div&gt;2. signIn&lt;/div&gt;&lt;div&gt;(username,&lt;/div&gt;&lt;div&gt;password)&lt;br&gt;&lt;/div&gt;" style="edgeLabel;html=1;align=center;verticalAlign=middle;resizable=0;points=[];" vertex="1" connectable="0" parent="ecYn4uSlazqXLzJlbQfl-32">
          <mxGeometry x="-0.1444" y="1" relative="1" as="geometry">
            <mxPoint x="-1" y="-40" as="offset" />
          </mxGeometry>
        </mxCell>
        <mxCell id="ecYn4uSlazqXLzJlbQfl-34" value="" style="endArrow=classic;html=1;rounded=0;exitX=0;exitY=1;exitDx=0;exitDy=0;entryX=0;entryY=0;entryDx=0;entryDy=0;strokeWidth=2;" edge="1" parent="1">
          <mxGeometry width="50" height="50" relative="1" as="geometry">
            <mxPoint x="210.00000000000068" y="210" as="sourcePoint" />
            <mxPoint x="210.0000000000009" y="397" as="targetPoint" />
          </mxGeometry>
        </mxCell>
        <mxCell id="ecYn4uSlazqXLzJlbQfl-35" value="&lt;div&gt;3. refreshToken&lt;/div&gt;&lt;div&gt;(userId,&lt;/div&gt;&lt;div&gt;&amp;nbsp;refreshToken) &lt;/div&gt;" style="edgeLabel;html=1;align=center;verticalAlign=middle;resizable=0;points=[];" vertex="1" connectable="0" parent="ecYn4uSlazqXLzJlbQfl-34">
          <mxGeometry x="-0.1444" y="1" relative="1" as="geometry">
            <mxPoint x="-1" y="50" as="offset" />
          </mxGeometry>
        </mxCell>
        <mxCell id="ecYn4uSlazqXLzJlbQfl-36" value="" style="endArrow=classic;html=1;rounded=0;exitX=0;exitY=1;exitDx=0;exitDy=0;entryX=0;entryY=0;entryDx=0;entryDy=0;strokeWidth=2;" edge="1" parent="1">
          <mxGeometry width="50" height="50" relative="1" as="geometry">
            <mxPoint x="434.5" y="210" as="sourcePoint" />
            <mxPoint x="434.5" y="397" as="targetPoint" />
          </mxGeometry>
        </mxCell>
        <mxCell id="ecYn4uSlazqXLzJlbQfl-37" value="&lt;div&gt;6. removeUser&lt;/div&gt;&lt;div&gt;(bellId, userId) &lt;/div&gt;" style="edgeLabel;html=1;align=center;verticalAlign=middle;resizable=0;points=[];" vertex="1" connectable="0" parent="ecYn4uSlazqXLzJlbQfl-36">
          <mxGeometry x="-0.1444" y="1" relative="1" as="geometry">
            <mxPoint x="-1" y="-2" as="offset" />
          </mxGeometry>
        </mxCell>
        <mxCell id="ecYn4uSlazqXLzJlbQfl-38" value="" style="endArrow=classic;html=1;rounded=0;exitX=0;exitY=1;exitDx=0;exitDy=0;entryX=0;entryY=0;entryDx=0;entryDy=0;strokeWidth=2;" edge="1" parent="1">
          <mxGeometry width="50" height="50" relative="1" as="geometry">
            <mxPoint x="270" y="210" as="sourcePoint" />
            <mxPoint x="270" y="397" as="targetPoint" />
          </mxGeometry>
        </mxCell>
        <mxCell id="ecYn4uSlazqXLzJlbQfl-39" value="4. me: userId" style="edgeLabel;html=1;align=center;verticalAlign=middle;resizable=0;points=[];" vertex="1" connectable="0" parent="ecYn4uSlazqXLzJlbQfl-38">
          <mxGeometry x="-0.1444" y="1" relative="1" as="geometry">
            <mxPoint x="-1" y="10" as="offset" />
          </mxGeometry>
        </mxCell>
        <mxCell id="ecYn4uSlazqXLzJlbQfl-41" value="" style="endArrow=classic;html=1;rounded=0;exitX=0;exitY=1;exitDx=0;exitDy=0;entryX=0;entryY=0;entryDx=0;entryDy=0;strokeWidth=2;" edge="1" parent="1">
          <mxGeometry width="50" height="50" relative="1" as="geometry">
            <mxPoint x="570" y="210" as="sourcePoint" />
            <mxPoint x="570" y="397" as="targetPoint" />
          </mxGeometry>
        </mxCell>
        <mxCell id="ecYn4uSlazqXLzJlbQfl-42" value="&lt;div&gt;8. removeBell&lt;/div&gt;&lt;div&gt;(bellId)&lt;br&gt;&lt;/div&gt;" style="edgeLabel;html=1;align=center;verticalAlign=middle;resizable=0;points=[];" vertex="1" connectable="0" parent="ecYn4uSlazqXLzJlbQfl-41">
          <mxGeometry x="-0.1444" y="1" relative="1" as="geometry">
            <mxPoint x="-1" y="-2" as="offset" />
          </mxGeometry>
        </mxCell>
        <mxCell id="ecYn4uSlazqXLzJlbQfl-43" value="" style="endArrow=classic;html=1;rounded=0;exitX=0;exitY=1;exitDx=0;exitDy=0;entryX=0;entryY=0;entryDx=0;entryDy=0;strokeWidth=2;" edge="1" parent="1">
          <mxGeometry width="50" height="50" relative="1" as="geometry">
            <mxPoint x="670" y="210" as="sourcePoint" />
            <mxPoint x="670" y="397" as="targetPoint" />
          </mxGeometry>
        </mxCell>
        <mxCell id="ecYn4uSlazqXLzJlbQfl-44" value="&lt;div&gt;10. getVisitors&lt;/div&gt;&lt;div&gt;(bellId)&lt;br&gt;&lt;/div&gt;" style="edgeLabel;html=1;align=center;verticalAlign=middle;resizable=0;points=[];" vertex="1" connectable="0" parent="ecYn4uSlazqXLzJlbQfl-43">
          <mxGeometry x="-0.1444" y="1" relative="1" as="geometry">
            <mxPoint x="-1" as="offset" />
          </mxGeometry>
        </mxCell>
        <mxCell id="ecYn4uSlazqXLzJlbQfl-45" value="" style="endArrow=classic;html=1;rounded=0;exitX=0;exitY=1;exitDx=0;exitDy=0;entryX=0;entryY=0;entryDx=0;entryDy=0;strokeWidth=2;" edge="1" parent="1">
          <mxGeometry width="50" height="50" relative="1" as="geometry">
            <mxPoint x="620" y="210" as="sourcePoint" />
            <mxPoint x="620" y="397" as="targetPoint" />
            <Array as="points">
              <mxPoint x="620" y="290" />
            </Array>
          </mxGeometry>
        </mxCell>
        <mxCell id="ecYn4uSlazqXLzJlbQfl-46" value="&lt;div&gt;9.. getVisitor&lt;/div&gt;&lt;div&gt;(visitorId)&lt;br&gt;&lt;/div&gt;" style="edgeLabel;html=1;align=center;verticalAlign=middle;resizable=0;points=[];" vertex="1" connectable="0" parent="ecYn4uSlazqXLzJlbQfl-45">
          <mxGeometry x="-0.1444" y="1" relative="1" as="geometry">
            <mxPoint x="-1" y="-50" as="offset" />
          </mxGeometry>
        </mxCell>
        <mxCell id="ecYn4uSlazqXLzJlbQfl-47" value="" style="endArrow=classic;html=1;rounded=0;exitX=0;exitY=1;exitDx=0;exitDy=0;entryX=0;entryY=0;entryDx=0;entryDy=0;strokeWidth=2;" edge="1" parent="1">
          <mxGeometry width="50" height="50" relative="1" as="geometry">
            <mxPoint x="710" y="210" as="sourcePoint" />
            <mxPoint x="710" y="397" as="targetPoint" />
          </mxGeometry>
        </mxCell>
        <mxCell id="ecYn4uSlazqXLzJlbQfl-48" value="&lt;div&gt;11. delete&lt;/div&gt;&lt;div&gt;Visitors&lt;/div&gt;" style="edgeLabel;html=1;align=center;verticalAlign=middle;resizable=0;points=[];" vertex="1" connectable="0" parent="ecYn4uSlazqXLzJlbQfl-47">
          <mxGeometry x="-0.1444" y="1" relative="1" as="geometry">
            <mxPoint x="-1" y="60" as="offset" />
          </mxGeometry>
        </mxCell>
        <mxCell id="ecYn4uSlazqXLzJlbQfl-50" value="" style="endArrow=classic;html=1;rounded=0;exitX=0.013;exitY=-0.067;exitDx=0;exitDy=0;strokeWidth=2;exitPerimeter=0;" edge="1" parent="1" source="oD_Yi28MRMcOgQZIaKZo-3">
          <mxGeometry width="50" height="50" relative="1" as="geometry">
            <mxPoint x="130" y="480" as="sourcePoint" />
            <mxPoint x="70" y="460" as="targetPoint" />
          </mxGeometry>
        </mxCell>
        <mxCell id="ecYn4uSlazqXLzJlbQfl-51" value="&lt;div&gt;12.create&lt;/div&gt;&lt;div&gt;Visitor&lt;/div&gt;&lt;div&gt;(nfc-tag, ...)&lt;br&gt;&lt;/div&gt;" style="edgeLabel;html=1;align=center;verticalAlign=middle;resizable=0;points=[];" vertex="1" connectable="0" parent="ecYn4uSlazqXLzJlbQfl-50">
          <mxGeometry x="-0.1444" y="1" relative="1" as="geometry">
            <mxPoint x="-1" y="-37" as="offset" />
          </mxGeometry>
        </mxCell>
        <mxCell id="ecYn4uSlazqXLzJlbQfl-52" value="" style="endArrow=classic;html=1;rounded=0;strokeWidth=2;" edge="1" parent="1">
          <mxGeometry width="50" height="50" relative="1" as="geometry">
            <mxPoint x="200" y="630" as="sourcePoint" />
            <mxPoint x="200" y="457" as="targetPoint" />
          </mxGeometry>
        </mxCell>
        <mxCell id="ecYn4uSlazqXLzJlbQfl-53" value="&lt;div&gt;12. delete&lt;br&gt;Self(nfc-tag)&lt;br&gt;&lt;/div&gt;" style="edgeLabel;html=1;align=center;verticalAlign=middle;resizable=0;points=[];" vertex="1" connectable="0" parent="ecYn4uSlazqXLzJlbQfl-52">
          <mxGeometry x="-0.1444" y="1" relative="1" as="geometry">
            <mxPoint x="-1" y="-10" as="offset" />
          </mxGeometry>
        </mxCell>
        <mxCell id="ecYn4uSlazqXLzJlbQfl-54" value="" style="endArrow=classic;html=1;rounded=0;strokeWidth=2;" edge="1" parent="1">
          <mxGeometry width="50" height="50" relative="1" as="geometry">
            <mxPoint x="135" y="634" as="sourcePoint" />
            <mxPoint x="135" y="461" as="targetPoint" />
          </mxGeometry>
        </mxCell>
        <mxCell id="ecYn4uSlazqXLzJlbQfl-55" value="&lt;div&gt;13. change&lt;br&gt;Nickname&lt;br&gt;(nfc-tag,&lt;/div&gt;&lt;div&gt;nickname)&lt;br&gt;&lt;/div&gt;" style="edgeLabel;html=1;align=center;verticalAlign=middle;resizable=0;points=[];" vertex="1" connectable="0" parent="ecYn4uSlazqXLzJlbQfl-54">
          <mxGeometry x="-0.1444" y="1" relative="1" as="geometry">
            <mxPoint x="-1" y="30" as="offset" />
          </mxGeometry>
        </mxCell>
        <mxCell id="ecYn4uSlazqXLzJlbQfl-57" value="" style="endArrow=classic;html=1;rounded=0;strokeWidth=2;" edge="1" parent="1">
          <mxGeometry width="50" height="50" relative="1" as="geometry">
            <mxPoint x="280" y="630" as="sourcePoint" />
            <mxPoint x="280" y="457" as="targetPoint" />
          </mxGeometry>
        </mxCell>
        <mxCell id="ecYn4uSlazqXLzJlbQfl-58" value="13. getUsers&lt;br&gt;(macAddress)" style="edgeLabel;html=1;align=center;verticalAlign=middle;resizable=0;points=[];" vertex="1" connectable="0" parent="ecYn4uSlazqXLzJlbQfl-57">
          <mxGeometry x="-0.1444" y="1" relative="1" as="geometry">
            <mxPoint x="-1" y="-46" as="offset" />
          </mxGeometry>
        </mxCell>
      </root>
    </mxGraphModel>
  </diagram>
</mxfile>
